HIERARCHY
ROOT Hips
{
	OFFSET 0.000000 0.000000 0.000000
	CHANNELS 6 Xposition Yposition Zposition Xrotation Yrotation Zrotation
	JOINT LeftUpLeg_virtual
	{
		OFFSET 0.000000 0.000000 0.000000
		CHANNELS 3 Xrotation Yrotation Zrotation
		JOINT LeftUpLeg
		{
			OFFSET 13.026900 -6.336304 -1.092800
			CHANNELS 3 Xrotation Yrotation Zrotation
			JOINT LeftLeg
			{
				OFFSET 0.524474 -46.096886 9.782700
				CHANNELS 3 Xrotation Yrotation Zrotation
				JOINT LeftFoot
				{
					OFFSET -0.524474 -53.427422 -12.948200
					CHANNELS 3 Xrotation Yrotation Zrotation
					JOINT LeftToeBase
					{
						OFFSET 0.192200 -14.009700 16.364100
						CHANNELS 3 Xrotation Yrotation Zrotation
						JOINT LeftToe_End
						{
							OFFSET -1.784700 -0.561700 9.474800
							CHANNELS 3 Xrotation Yrotation Zrotation
							End Site
							{
								OFFSET 0 0 0
							}
						}
					}
				}
			}
		}
	}
	JOINT RightUpLeg_virtual
	{
		OFFSET 0.000000 0.000000 0.000000
		CHANNELS 3 Xrotation Yrotation Zrotation
		JOINT RightUpLeg
		{
			OFFSET -12.883000 -6.336304 -1.092800
			CHANNELS 3 Xrotation Yrotation Zrotation
			JOINT RightLeg
			{
				OFFSET -0.524587 -46.096825 9.782800
				CHANNELS 3 Xrotation Yrotation Zrotation
				JOINT RightFoot
				{
					OFFSET 0.524587 -53.427383 -12.948300
					CHANNELS 3 Xrotation Yrotation Zrotation
					JOINT RightToeBase
					{
						OFFSET -0.192200 -14.009700 16.364100
						CHANNELS 3 Xrotation Yrotation Zrotation
						JOINT RightToe_End
						{
							OFFSET 1.784700 -0.561700 9.474800
							CHANNELS 3 Xrotation Yrotation Zrotation
							End Site
							{
								OFFSET 0 0 0
							}
						}
					}
				}
			}
		}
	}
	JOINT Spine_virtual
	{
		OFFSET 0.000000 0.000000 0.000000
		CHANNELS 3 Xrotation Yrotation Zrotation
		JOINT Spine
		{
			OFFSET 0.072000 7.257294 -0.789700
			CHANNELS 3 Xrotation Yrotation Zrotation
			JOINT Spine1
			{
				OFFSET 0.000000 12.508769 -0.658067
				CHANNELS 3 Xrotation Yrotation Zrotation
				JOINT Spine1_split
				{
					OFFSET 0.000000 12.508769 -0.658067
					CHANNELS 3 Xrotation Yrotation Zrotation
					JOINT Spine2
					{
						OFFSET 0.000000 12.508769 -0.658067
						CHANNELS 3 Xrotation Yrotation Zrotation
						JOINT Neck_virtual
						{
							OFFSET 0.000000 0.000000 0.000000
							CHANNELS 3 Xrotation Yrotation Zrotation
							JOINT Neck
							{
								OFFSET 0.000000 14.033295 7.520400
								CHANNELS 3 Xrotation Yrotation Zrotation
								JOINT Head
								{
									OFFSET 0.000000 8.198502 5.703100
									CHANNELS 3 Xrotation Yrotation Zrotation
									JOINT HeadTop_End
									{
										OFFSET 0.000000 17.760803 13.332701
										CHANNELS 3 Xrotation Yrotation Zrotation
										End Site
										{
											OFFSET 0 0 0
										}
									}
								}
							}
						}
						JOINT LeftShoulder_virtual
						{
							OFFSET 0.000000 0.000000 0.000000
							CHANNELS 3 Xrotation Yrotation Zrotation
							JOINT LeftShoulder
							{
								OFFSET 6.292450 5.785301 -0.669000
								CHANNELS 3 Xrotation Yrotation Zrotation
								JOINT LeftShoulder_split
								{
									OFFSET 6.292450 5.785301 -0.669000
									CHANNELS 3 Xrotation Yrotation Zrotation
									JOINT LeftArm
									{
										OFFSET 13.907140 -6.093903 1.965100
										CHANNELS 3 Xrotation Yrotation Zrotation
										JOINT LeftForeArm
										{
											OFFSET 34.140198 0.000000 0.000000
											CHANNELS 3 Xrotation Yrotation Zrotation
											JOINT LeftHand
											{
												OFFSET 40.960209 0.000000 0.000000
												CHANNELS 3 Xrotation Yrotation Zrotation
												End Site
												{
													OFFSET 0 0 0
												}
											}
										}
									}
								}
							}
						}
						JOINT RightShoulder_virtual
						{
							OFFSET 0.000000 0.000000 0.000000
							CHANNELS 3 Xrotation Yrotation Zrotation
							JOINT RightShoulder
							{
								OFFSET -6.292450 5.785301 -0.669000
								CHANNELS 3 Xrotation Yrotation Zrotation
								JOINT RightShoulder_split
								{
									OFFSET -6.292450 5.785301 -0.669000
									CHANNELS 3 Xrotation Yrotation Zrotation
									JOINT RightArm
									{
										OFFSET -13.907140 -6.093903 1.965100
										CHANNELS 3 Xrotation Yrotation Zrotation
										JOINT RightForeArm
										{
											OFFSET -34.140198 0.000000 0.000000
											CHANNELS 3 Xrotation Yrotation Zrotation
											JOINT RightHand
											{
												OFFSET -40.960209 0.000000 0.000000
												CHANNELS 3 Xrotation Yrotation Zrotation
												End Site
												{
													OFFSET 0 0 0
												}
											}
										}
									}
								}
							}
						}
					}
				}
			}
		}
	}
}
MOTION
Frames: 7
Frame Time: 0.03333333
-1.759957 103.959595 8.922295 0.000000 0.000000 0.000000 33.502498 -3.560614 -9.340296 -66.366503 5.200381 4.223453 69.073710 -8.124437 2.491432 1.764000 4.895956 7.171266 -4.498831 0.515984 1.116627 0.000000 0.000000 0.000000 30.067855 -6.387263 -8.297832 -37.531449 -13.161932 8.062163 38.771562 -0.330246 -1.541352 -20.548318 -2.738756 13.177166 -14.389696 -1.682672 0.839791 0.000000 0.000000 0.000000 32.826156 -4.759636 -9.287036 3.661268 4.532678 2.894888 -0.823930 1.415579 -0.328359 0.547864 1.307019 -0.083187 0.000000 0.000000 0.000000 -0.072094 1.342597 -0.207582 -11.557923 0.777755 2.728000 -11.294940 3.741895 -3.954533 0.000000 0.000000 0.000000 -1.019893 1.617621 -0.330000 1.329789 0.965809 -20.521372 2.551492 -2.580927 -0.154280 18.669431 -2.798937 -42.221641 3.855490 -69.223496 1.767675 0.000000 0.000000 0.000000 -0.242166 1.239350 -0.802861 1.355763 4.883515 18.572982 1.444641 1.966020 -2.885478 8.391960 -10.312646 50.799887 -0.116013 67.038027 1.850009 0.000000 0.000000 0.000000 
-2.263013 103.638824 11.324295 0.000000 0.000000 0.000000 32.351123 -4.995127 -8.685783 -68.748962 5.659238 4.617608 65.773861 -7.665035 2.099206 1.975713 4.401765 6.636056 -4.211045 0.452019 1.489835 0.000000 0.000000 0.000000 30.653985 -7.419228 -7.898188 -35.735758 -12.826068 7.907908 39.965892 -0.896283 -1.235516 -21.145236 -4.050332 14.184806 -15.259385 -1.635431 0.702826 0.000000 0.000000 0.000000 32.196716 -4.169723 -9.504859 4.206737 4.806595 2.685818 -0.814439 1.571337 -0.307792 0.440280 2.353403 -0.066805 0.000000 0.000000 0.000000 -0.160259 1.444687 -0.282062 -11.729841 0.472997 2.821646 -11.495645 3.442787 -3.723996 0.000000 0.000000 0.000000 -0.980152 1.768101 -0.346809 1.318568 0.739380 -20.109771 2.155240 -2.152987 -0.388320 18.257505 -2.923781 -42.729370 3.866855 -69.414304 1.938817 0.000000 0.000000 0.000000 -0.255779 1.383245 -0.913146 1.408314 4.952834 18.358871 1.890555 2.054314 -2.987261 8.285426 -9.908262 50.597365 -0.183153 68.405827 1.792130 0.000000 0.000000 0.000000 
-3.332570 103.330154 15.180084 0.000000 0.000000 0.000000 31.184629 -6.167376 -7.895294 -72.018765 6.305230 4.778260 62.030262 -7.153138 1.786553 1.673038 4.511302 6.649313 -3.853168 0.427231 1.280911 0.000000 0.000000 0.000000 31.127853 -7.121016 -7.875297 -31.204860 -12.558884 8.381778 40.270286 -2.903747 -0.714204 -25.003864 -6.129285 11.062048 -13.118873 -1.271569 0.166647 0.000000 0.000000 0.000000 30.962252 -3.916465 -9.223887 4.916328 5.224889 2.052260 -0.704950 1.857738 -0.364468 0.569511 3.067406 0.107774 0.000000 0.000000 0.000000 -0.230574 1.666807 -0.425095 -12.057232 0.183950 2.737816 -11.890407 2.874260 -3.268479 0.000000 0.000000 0.000000 -0.886672 2.016785 -0.441909 1.319705 0.609803 -19.460295 1.803511 -1.726816 -0.703470 17.829043 -3.245075 -43.545038 4.075140 -69.612250 2.381863 0.000000 0.000000 0.000000 -0.245377 1.662931 -1.066342 1.503179 5.095551 17.809658 2.347662 2.038823 -2.846701 9.022484 -9.690660 50.598878 -0.397182 70.668211 1.819153 0.000000 0.000000 0.000000 
-4.885860 102.862404 19.933865 0.000000 0.000000 0.000000 30.182606 -6.648785 -7.007393 -75.203716 7.187476 4.426128 58.075295 -6.320533 1.536602 0.880687 5.371652 7.434485 -3.324169 0.428245 0.607958 0.000000 0.000000 0.000000 31.243017 -6.335676 -7.738273 -25.482707 -12.423002 8.936801 38.810672 -5.491246 -0.218367 -29.647304 -7.469574 5.646279 -10.805405 -0.645149 -0.642069 0.000000 0.000000 0.000000 29.649677 -3.939055 -8.517919 5.697778 5.664143 0.973051 -0.549511 2.164163 -0.425283 0.754943 2.844413 0.201392 0.000000 0.000000 0.000000 -0.281902 1.969354 -0.564726 -12.449940 -0.045788 2.542580 -12.386350 2.233832 -2.690161 0.000000 0.000000 0.000000 -0.764478 2.304698 -0.538219 1.338703 0.570753 -18.671429 1.636003 -1.315918 -0.940260 17.396765 -3.546197 -44.685553 4.353877 -69.854230 2.947395 0.000000 0.000000 0.000000 -0.217609 1.989389 -1.191746 1.617026 5.263194 17.088969 2.644046 2.060442 -2.539709 10.537672 -9.755534 50.985320 -0.660078 73.367556 1.860435 0.000000 0.000000 0.000000 
-6.501084 102.351959 25.606146 0.000000 0.000000 0.000000 29.572926 -6.595808 -6.127679 -77.779442 8.371307 3.762896 53.835780 -5.105326 1.250959 0.016859 6.643499 8.776173 -2.737128 0.388797 -0.177495 0.000000 0.000000 0.000000 31.247262 -5.664441 -7.194879 -19.873996 -12.332146 9.070365 35.852595 -6.756558 -0.189440 -31.133413 -7.016509 2.046803 -13.166621 0.162389 -1.562651 0.000000 0.000000 0.000000 28.666724 -4.031964 -7.498460 6.404805 6.007781 -0.473624 -0.390074 2.435643 -0.441938 1.059550 2.086477 0.277568 0.000000 0.000000 0.000000 -0.331653 2.303169 -0.648187 -12.821818 -0.204403 2.332213 -12.839031 1.749568 -2.095595 0.000000 0.000000 0.000000 -0.664790 2.594824 -0.597906 1.359876 0.605851 -17.889886 1.593647 -0.934762 -1.161133 16.924128 -3.633809 -46.092879 4.546952 -70.230696 3.445159 0.000000 0.000000 0.000000 -0.206128 2.310434 -1.224561 1.740831 5.419956 16.413653 2.521137 2.382110 -2.217542 12.497278 -10.138701 51.799902 -0.856678 76.011468 1.844761 0.000000 0.000000 0.000000 
-8.132166 101.714127 31.779968 0.000000 0.000000 0.000000 29.534964 -6.253318 -5.262027 -79.317013 9.724335 3.123032 49.273736 -3.957276 0.814280 -0.373218 7.747659 10.325412 -3.004437 0.250121 -0.548567 0.000000 0.000000 0.000000 31.291292 -5.196012 -6.380513 -15.225057 -12.220106 8.483002 32.780434 -5.798095 -0.526301 -26.699645 -4.895775 2.682436 -21.284381 1.024052 -2.245516 0.000000 0.000000 0.000000 28.323319 -4.244439 -6.367264 7.008912 6.167105 -2.148123 -0.255681 2.653405 -0.408288 1.302041 1.027325 0.400846 0.000000 0.000000 0.000000 -0.391830 2.644065 -0.665142 -13.086947 -0.262545 2.178586 -13.047745 1.647207 -1.552376 0.000000 0.000000 0.000000 -0.609475 2.864952 -0.613646 1.376852 0.678840 -17.253473 1.527267 -0.573591 -1.295680 16.406632 -3.362713 -47.577264 4.555752 -70.735843 3.731650 0.000000 0.000000 0.000000 -0.244413 2.616607 -1.156445 1.845326 5.457750 15.950531 2.030997 2.912316 -1.921175 14.511473 -10.792092 53.018930 -0.835422 78.229230 1.628259 0.000000 0.000000 0.000000 
-9.613732 101.069412 38.182812 0.000000 0.000000 0.000000 29.701508 -6.007428 -4.552472 -79.931873 11.011155 2.896307 44.961701 -3.007620 0.062073 -0.037299 8.315700 11.805803 -4.029129 0.057904 -0.314517 0.000000 0.000000 0.000000 31.079502 -5.107190 -5.468906 -12.085015 -12.289918 7.288532 30.981922 -3.511709 -0.887603 -16.905826 -1.547982 6.401716 -31.000152 1.598891 -2.366679 0.000000 0.000000 0.000000 28.319612 -4.422089 -5.328289 7.507694 6.172690 -3.765127 -0.194178 2.866591 -0.346373 1.339343 0.147103 0.348702 0.000000 0.000000 0.000000 -0.461384 2.974033 -0.666169 -13.261339 -0.240284 2.100594 -12.875009 1.862527 -1.112195 0.000000 0.000000 0.000000 -0.635849 3.132087 -0.622527 1.371316 0.691740 -16.854779 1.458092 -0.373892 -1.357149 15.920794 -2.768259 -48.958355 4.201722 -71.212509 3.618046 0.000000 0.000000 0.000000 -0.349090 2.911113 -1.039738 1.905549 5.292826 15.750935 1.359567 3.557135 -1.687153 16.175309 -11.626081 54.393161 -0.476404 79.871208 1.116224 0.000000 0.000000 0.000000 
